<?xml version="1.0" encoding="utf-8"?>
<!-- Svg Vector Icons : http://www.onlinewebfonts.com/icon -->
<!DOCTYPE svg PUBLIC "-//W3C//DTD SVG 1.1//EN" "http://www.w3.org/Graphics/SVG/1.1/DTD/svg11.dtd">
<svg version="1.1" xmlns="http://www.w3.org/2000/svg" xmlns:xlink="http://www.w3.org/1999/xlink" x="0px" y="0px" viewBox="0 0 1000 1000" enable-background="new 0 0 1000 1000" xml:space="preserve">
<metadata> Svg Vector Icons : http://www.onlinewebfonts.com/icon </metadata>
<g><g transform="translate(0.000000,511.000000) scale(0.100000,-0.100000)"><path d="M5107.6,4636.2c-88.4-17.3-132.6-36.5-157.6-69.2c-123-163.3-140.3-580.3-44.2-1064.5c99.9-516.9,67.3-895.5-115.3-1316.3c-176.8-411.2-530.4-791.7-864.7-930c-96.1-40.4-107.6-38.4-107.6,13.4c0,80.7-113.4,282.5-215.2,386.2c-117.2,115.3-265.2,194.1-422.7,222.9c-71.1,13.5-520.7,19.2-1287.4,15.4C739.9,1888.3,713,1888.3,615,1848c-219.1-90.3-407.4-284.4-480.4-493.8C101.9,1260,100,1125.5,100-859.5v-2113.7l61.5-130.7c73-153.7,224.8-315.2,363.2-384.3c180.6-90.3,224.8-94.2,1508.4-86.5l1201,5.8l144.1,71.1c157.6,78.8,272.9,186.4,357.4,332.4c51.9,90.3,61.5,96.1,142.2,101.8c201.8,15.4,365.1-90.3,824.4-541.9c538-526.5,799.4-676.4,1352.8-770.5c520.7-88.4,2081.1-88.4,2546.1,0c418.9,80.7,659.1,249.8,770.5,541.9c51.9,134.5,61.5,390.1,21.1,586.1l-26.9,128.8l59.6,67.2c94.2,107.6,209.5,315.1,265.2,482.3c67.3,199.8,84.6,511.1,38.4,705.2l-30.7,130.7l65.3,128.7c107.6,215.2,136.4,334.4,136.4,582.2c0,244-38.4,405.4-146,616.8l-55.7,111.4l40.4,149.9c55.7,215.2,71.1,572.6,28.8,736c-50,194.1-117.2,313.2-242.1,428.5c-284.4,263.3-670.6,322.8-1258.6,196c-505.4-107.6-686-86.5-874.3,103.8c-190.2,192.2-303.6,461.2-499.6,1183.7c-305.5,1126-461.2,1485.4-787.8,1817.8C5812.8,4617,5505.4,4715,5107.6,4636.2z M5687.9,4284.5c188.3-92.2,330.5-257.5,474.6-549.6c136.4-274.8,238.3-576.5,420.8-1243.3c222.9-807.1,345.9-1108.7,540-1327.8c272.9-305.5,564.9-367,1181.8-246c641.8,124.9,958.9,51.9,1116.4-253.7c103.8-203.7,101.9-493.8-3.8-841.6l-50-163.3l78.8-134.5c84.5-142.2,146-313.2,163.3-451.6c26.9-188.3-90.3-584.2-201.8-684.1c-46.1-42.3-46.1-65.3,3.8-219.1c57.6-176.8,59.6-443.9,3.8-624.5c-55.7-174.8-153.7-338.2-288.2-474.6l-107.6-107.6l53.8-186.4c119.1-420.8,73-607.2-178.7-745.6c-255.6-138.4-636-174.9-1739-161.4c-1416.2,15.4-1554.6,61.5-2261.7,753.3c-196,192.1-395.8,376.6-447.7,411.2c-157.6,107.6-359.3,192.2-488.1,205.6l-121.1,13.5v1827.4V908.3l140.3,51.9c480.4,180.6,949.3,726.3,1154.9,1341.3c140.3,420.8,161.4,768.6,74.9,1195.2c-42.3,207.5-51.9,307.5-53.8,540c0,230.6,5.8,288.2,28.8,303.6c15.4,9.6,105.7,15.4,203.7,13.4C5538,4347.9,5578.4,4338.3,5687.9,4284.5z M3234.1,1561.7c59.6-17.3,121.1-53.8,165.3-99.9c140.3-144.1,130.7,15.4,130.7-2307.8v-2090.7l-48-98c-51.9-103.8-149.9-186.4-261.3-217.1c-94.2-26.9-2425-25-2524.9,1.9c-101.8,28.8-247.9,174.9-276.7,276.7c-30.7,115.3-28.8,4156.3,1.9,4263.9c30.7,105.7,176.8,249.8,276.7,276.7c48,11.5,505.4,19.2,1258.6,21.1C2943.9,1590.5,3153.4,1586.6,3234.1,1561.7z"/></g></g>
</svg>